<?xml version="1.0" standalone="no"?>
<!DOCTYPE svg PUBLIC "-//W3C//DTD SVG 20010904//EN"
 "http://www.w3.org/TR/2001/REC-SVG-20010904/DTD/svg10.dtd">
<svg version="1.0" xmlns="http://www.w3.org/2000/svg"
 width="1200.000000pt" height="1200.000000pt" viewBox="0 0 1200.000000 1200.000000"
 preserveAspectRatio="xMidYMid meet">
<metadata>
Created by potrace 1.11, written by Peter Selinger 2001-2013
</metadata>
<g transform="translate(0.000000,1200.000000) scale(0.100000,-0.100000)"
fill="#000000" stroke="none">
<path d="M4008 10880 c-14 -4 -59 -24 -98 -44 -303 -151 -758 -580 -976 -918
l-36 -57 -41 21 c-90 45 -150 60 -254 63 -76 3 -117 -1 -160 -14 -257 -78
-417 -291 -414 -550 1 -69 6 -98 35 -183 12 -38 19 -68 14 -68 -15 0 -174
-108 -256 -173 -265 -210 -534 -497 -679 -723 -216 -338 -119 -440 220 -232
159 97 328 237 522 433 66 66 136 140 155 164 19 24 42 51 51 60 21 22 128
166 162 219 l27 42 51 -26 c85 -43 193 -66 284 -60 44 2 93 9 108 15 16 6 34
11 41 11 19 0 108 -82 336 -308 201 -199 317 -323 464 -496 22 -27 46 -54 51
-60 54 -58 310 -391 386 -501 19 -27 36 -52 39 -55 24 -22 279 -422 337 -528
l30 -53 -35 -67 c-19 -37 -52 -111 -74 -165 -136 -342 -154 -769 -47 -1132 23
-75 25 -81 62 -166 l25 -57 -68 -133 c-103 -206 -206 -377 -354 -589 -75 -109
-282 -389 -295 -400 -3 -3 -19 -23 -36 -45 -16 -22 -56 -71 -88 -110 -32 -38
-64 -77 -70 -85 -50 -60 -202 -237 -211 -245 -6 -5 -26 -28 -45 -50 -112 -132
-412 -451 -421 -448 -55 16 -196 22 -265 10 -45 -7 -109 -28 -152 -50 -29 -15
-30 -15 -48 16 -71 123 -286 358 -508 555 -182 161 -484 360 -610 401 -133 44
-199 24 -190 -58 2 -20 24 -76 49 -126 139 -280 665 -773 1024 -961 30 -15 57
-29 59 -31 2 -1 -3 -13 -11 -25 -47 -74 -79 -232 -67 -327 13 -92 19 -113 54
-186 70 -147 206 -258 370 -302 11 -3 63 -7 116 -9 105 -3 182 12 261 52 l47
24 18 -27 c10 -16 22 -33 28 -39 5 -6 24 -29 40 -50 86 -111 231 -258 427
-431 125 -110 344 -262 477 -329 236 -120 341 -94 280 71 -61 166 -319 467
-604 705 -50 41 -92 78 -95 81 -13 15 -204 147 -277 192 -46 27 -83 54 -83 59
0 5 7 23 16 40 37 72 49 245 24 339 -11 40 -11 40 47 107 58 68 447 459 538
543 44 39 226 197 310 268 257 217 659 502 959 680 l135 80 88 -40 c159 -74
336 -124 513 -146 74 -10 350 -10 425 -1 185 23 327 63 512 145 l102 44 48
-27 c26 -15 73 -40 103 -57 30 -16 62 -36 71 -43 8 -8 19 -14 22 -14 17 0 341
-222 484 -331 148 -114 420 -334 453 -369 3 -3 39 -34 80 -70 158 -137 299
-269 552 -520 l227 -225 -11 -55 c-15 -77 -4 -213 22 -285 13 -33 26 -64 31
-70 6 -5 -16 -25 -54 -50 -56 -36 -142 -99 -157 -115 -3 -3 -25 -21 -50 -41
-134 -109 -316 -293 -449 -454 -111 -134 -111 -134 -111 -144 0 -5 -4 -11 -9
-13 -12 -5 -99 -142 -137 -218 -18 -36 -35 -83 -39 -105 -4 -22 -9 -48 -11
-57 -1 -9 7 -29 18 -44 19 -24 26 -26 72 -22 142 13 409 200 701 493 150 149
312 344 385 462 25 40 49 72 53 73 4 0 27 -9 50 -19 82 -38 167 -53 257 -48
95 6 113 9 179 34 200 74 344 273 356 492 4 74 -16 203 -34 225 -5 6 -9 13
-10 16 0 3 -3 14 -7 24 -5 14 0 25 22 43 16 12 33 23 37 23 13 0 183 129 272
205 91 78 312 299 365 364 19 24 44 53 55 65 11 11 31 37 45 56 13 19 27 37
31 40 19 14 147 214 175 275 143 302 -66 305 -441 7 -148 -118 -352 -313 -456
-437 -19 -22 -39 -44 -45 -50 -40 -37 -244 -324 -244 -345 0 -16 -16 -12 -78
19 -67 33 -140 52 -220 56 -52 2 -82 -1 -180 -20 -33 -6 -38 -2 -236 197 -241
242 -373 387 -525 573 -9 12 -37 45 -62 75 -133 159 -419 559 -553 775 -65
105 -259 443 -268 466 -3 9 2 35 13 59 35 77 97 293 115 395 22 130 26 390 9
515 -25 173 -76 354 -137 490 l-21 45 38 70 c128 236 382 602 590 850 22 26
67 80 99 119 32 39 62 73 65 76 3 3 31 34 61 70 30 35 62 72 70 80 8 9 56 61
106 116 51 54 108 117 129 139 68 73 311 319 443 447 127 124 131 127 162 118
44 -13 194 -4 253 14 26 9 75 30 108 47 32 18 61 30 62 28 3 -3 19 -25 82
-107 19 -26 141 -156 201 -216 325 -326 770 -616 951 -620 96 -2 113 59 50
183 -140 275 -604 708 -997 931 -52 29 -97 55 -99 56 -2 2 4 27 13 56 23 75
26 94 27 173 2 107 -23 200 -77 292 -74 126 -218 231 -359 262 -16 3 -77 6
-135 5 -88 -1 -117 -5 -179 -29 -66 -24 -75 -25 -83 -11 -45 81 -314 367 -468
497 -304 258 -613 438 -767 448 -32 2 -47 -3 -63 -19 -50 -50 -1 -175 138
-351 87 -110 303 -327 433 -434 157 -130 339 -258 456 -320 l72 -38 -24 -47
c-56 -110 -73 -268 -42 -388 15 -55 15 -66 2 -85 -19 -28 -353 -358 -470 -464
-318 -286 -736 -608 -1037 -798 -196 -124 -413 -251 -550 -324 l-46 -24 -58
28 c-33 15 -68 31 -79 35 -11 4 -33 13 -50 20 -80 33 -256 77 -380 96 -22 3
-114 7 -205 9 -151 3 -208 -2 -372 -30 -52 -9 -191 -49 -264 -75 l-60 -23
-131 66 c-71 36 -181 96 -243 134 -63 37 -125 75 -139 83 -34 20 -145 93 -151
100 -14 14 -102 70 -109 70 -5 0 -11 3 -13 8 -1 4 -37 32 -78 62 -210 153
-583 457 -770 627 -19 17 -44 40 -56 50 -65 56 -249 227 -367 341 -78 75 -78
76 -72 116 12 80 11 172 -2 231 -23 98 -25 105 -34 111 -21 12 -6 34 44 62
180 102 489 375 698 617 231 267 354 509 294 575 -19 21 -75 26 -127 10z
m-1351 -1376 c57 -36 73 -105 40 -166 -39 -71 -123 -86 -187 -32 -69 59 -51
173 35 208 35 15 80 11 112 -10z m6780 4 c49 -24 70 -70 64 -140 -2 -34 -59
-85 -101 -92 -121 -19 -195 129 -106 213 41 39 89 45 143 19z m-6777 -6763
c56 -29 80 -118 45 -171 -20 -32 -73 -64 -103 -64 -39 0 -90 30 -113 66 -17
28 -20 44 -15 79 13 86 106 131 186 90z m6747 -17 c54 -38 68 -108 33 -166
-42 -68 -129 -79 -192 -23 -25 22 -32 37 -36 79 -4 50 -3 53 36 92 34 34 46
40 83 40 28 0 54 -8 76 -22z"/>
</g>
</svg>
